<?xml version="1.0" encoding="utf-8"?>
<svg width="100px" height="20px" viewBox="0 0 301.145 61.102" class="looka-1j8o68f" preserveAspectRatio="none" xmlns="http://www.w3.org/2000/svg" xmlns:bx="https://boxy-svg.com"><defs id="SvgjsDefs1867"><view id="view-1"><title>View 1</title></view><bx:export><bx:file format="svg"/><bx:file format="svg" path="Untitled 2.svg" excluded="true"/></bx:export></defs><g><g id="SvgjsG1869" featurekey="monogramFeature-0" transform="matrix(1.538423, 0, 0, 1.538423, -14.380989, -28.550349)" fill="#000000" style=""><path d="M 45.363 34.281 C 45.682 35.631 45.795 36.994 45.783 38.33 C 45.75 41.011 45.116 43.603 43.98 45.968 C 43.417 47.153 42.689 48.265 41.869 49.307 C 41.037 50.344 40.055 51.275 38.988 52.096 C 37.899 52.905 36.727 53.549 35.522 54.064 C 34.308 54.549 33.061 54.898 31.802 55.107 C 30.541 55.294 29.273 55.366 28.012 55.285 C 26.752 55.188 25.501 54.989 24.285 54.615 C 21.861 53.889 19.537 52.535 17.765 50.674 C 16.888 49.75 16.116 48.747 15.518 47.665 C 14.909 46.591 14.415 45.464 14.082 44.294 C 13.736 43.131 13.516 41.932 13.457 40.719 C 13.404 40.117 13.438 39.504 13.451 38.899 C 13.484 38.586 13.511 38.272 13.546 37.959 C 13.151 37.857 12.779 37.729 12.443 37.567 C 11.816 37.275 11.291 36.846 10.995 36.376 C 10.704 35.916 10.607 35.374 10.76 34.82 C 10.873 34.406 11.013 34.032 11.146 33.64 L 11.356 33.063 L 11.594 32.533 L 12.087 31.493 L 12.635 30.544 L 12.915 30.075 L 13.214 29.64 L 13.822 28.78 C 14.251 28.249 14.673 27.703 15.135 27.215 C 15.596 26.725 16.058 26.238 16.561 25.799 C 17.044 25.341 17.57 24.923 18.099 24.512 C 18.622 24.097 19.204 23.729 19.766 23.354 C 20.38 23.006 20.94 22.64 21.612 22.341 C 22.869 21.701 24.354 21.201 25.98 20.888 C 26.408 20.824 26.837 20.768 27.266 20.721 C 27.687 20.68 28.044 20.69 28.434 20.68 C 28.819 20.668 29.197 20.687 29.574 20.719 C 29.95 20.754 30.333 20.765 30.699 20.832 C 33.669 21.254 36.347 22.432 38.581 24.075 C 39.709 24.886 40.713 25.845 41.617 26.889 C 42.526 27.927 43.297 29.094 43.938 30.338 C 44.589 31.578 45.062 32.939 45.363 34.282 L 45.363 34.281 Z M 35.034 42.028 C 35.421 40.907 35.569 39.685 35.443 38.558 C 35.378 37.998 35.274 37.454 35.082 36.968 C 34.902 36.473 34.693 36.039 34.396 35.628 C 33.835 34.793 33.012 34.052 32.108 33.554 C 31.207 33.045 30.232 32.802 29.416 32.809 C 29.313 32.793 29.216 32.829 29.118 32.828 C 29.019 32.83 28.922 32.836 28.831 32.862 C 28.748 32.884 28.626 32.884 28.577 32.91 C 28.536 32.939 28.495 32.958 28.454 32.968 C 28.232 33.089 27.895 33.204 27.491 33.501 C 26.694 33.998 25.808 34.886 25.158 35.778 C 24.483 36.665 24.126 37.685 24.111 38.107 C 24.147 38.16 23.947 38.151 23.566 38.147 C 23.193 38.136 22.681 38.098 22.025 38.112 C 21.425 38.117 20.726 38.154 19.976 38.194 C 19.956 38.477 19.966 38.767 19.958 39.05 C 19.999 39.396 20.002 39.737 20.077 40.08 C 20.18 40.763 20.382 41.436 20.65 42.071 C 21.173 43.347 22 44.471 22.97 45.271 C 23.928 46.072 25.067 46.569 26.321 46.807 C 26.945 46.929 27.594 46.949 28.233 46.934 C 28.878 46.904 29.511 46.788 30.121 46.634 C 30.726 46.457 31.298 46.22 31.827 45.942 C 32.34 45.638 32.811 45.303 33.213 44.926 C 33.604 44.527 33.973 44.102 34.278 43.611 C 34.572 43.112 34.847 42.594 35.034 42.028 Z" style="fill: rgb(155, 15, 153);"/></g><g id="SvgjsG1870" featurekey="nameFeature-0" transform="matrix(1.93522, 0, 0, 1.93522, 14.937149, -20.239531)" fill="#ffffff"><path d="M 34.748 19.412 C 35.961 19.412 36.944 20.395 36.944 21.608 C 36.944 22.821 35.961 23.804 34.748 23.804 C 31.494 23.804 28.846 26.452 28.846 29.706 L 28.846 37.804 C 28.846 39.017 27.863 40 26.65 40 C 25.437 40 24.454 39.017 24.454 37.804 L 24.454 21.608 C 24.454 20.395 25.437 19.412 26.65 19.412 C 27.757 19.412 28.67 20.232 28.822 21.297 C 30.499 20.111 32.543 19.412 34.748 19.412 Z M 49.135 19.467 C 54.796 19.467 59.402 24.073 59.402 29.734 C 59.402 35.395 54.796 40.001 49.135 40.001 C 46.94 40.001 44.905 39.306 43.234 38.128 C 43.077 39.187 42.167 40.001 41.065 40.001 C 39.852 40.001 38.869 39.018 38.869 37.805 L 38.869 14.197 C 38.869 12.984 39.852 12.001 41.065 12.001 C 42.277 12.001 43.261 12.984 43.261 14.197 L 43.261 21.322 C 44.926 20.155 46.951 19.468 49.135 19.468 L 49.135 19.467 Z M 49.135 35.608 C 52.374 35.608 55.009 32.973 55.009 29.734 C 55.009 26.494 52.374 23.859 49.135 23.859 C 45.896 23.859 43.261 26.494 43.261 29.734 C 43.261 32.973 45.896 35.608 49.135 35.608 Z M 63.518 19.412 C 64.731 19.412 65.714 20.395 65.714 21.608 L 65.714 37.804 C 65.714 39.017 64.731 40 63.518 40 C 62.305 40 61.322 39.017 61.322 37.804 L 61.322 21.608 C 61.322 20.395 62.305 19.412 63.518 19.412 Z M 61.489 15.036 C 61.435 14.904 61.393 14.764 61.366 14.624 C 61.336 14.484 61.322 14.339 61.322 14.196 C 61.322 14.053 61.336 13.908 61.366 13.768 C 61.393 13.628 61.435 13.488 61.489 13.356 C 61.544 13.224 61.613 13.095 61.693 12.977 C 61.772 12.856 61.863 12.744 61.964 12.642 C 62.066 12.541 62.178 12.45 62.299 12.37 C 62.417 12.291 62.546 12.222 62.678 12.167 C 62.81 12.112 62.95 12.071 63.09 12.044 C 63.803 11.898 64.561 12.134 65.072 12.642 C 65.171 12.744 65.264 12.856 65.344 12.977 C 65.423 13.095 65.492 13.224 65.547 13.356 C 65.602 13.488 65.643 13.628 65.67 13.768 C 65.7 13.908 65.714 14.053 65.714 14.196 C 65.714 14.339 65.7 14.484 65.67 14.624 C 65.643 14.764 65.602 14.904 65.547 15.036 C 65.492 15.168 65.423 15.297 65.344 15.415 C 65.264 15.536 65.171 15.648 65.072 15.75 C 64.97 15.851 64.858 15.942 64.737 16.021 C 64.619 16.101 64.49 16.17 64.358 16.225 C 64.226 16.279 64.086 16.321 63.946 16.348 C 63.806 16.378 63.661 16.392 63.518 16.392 C 63.375 16.392 63.23 16.378 63.09 16.348 C 62.95 16.321 62.81 16.279 62.678 16.225 C 62.546 16.17 62.417 16.101 62.299 16.021 C 62.178 15.942 62.066 15.851 61.964 15.75 C 61.863 15.648 61.772 15.536 61.693 15.415 C 61.613 15.297 61.544 15.168 61.489 15.036 Z M 78.155 35.608 C 79.368 35.608 80.351 36.591 80.351 37.804 C 80.351 39.017 79.368 40 78.155 40 C 72.388 40 67.696 35.308 67.696 29.541 L 67.696 14.196 C 67.696 12.983 68.679 12 69.892 12 C 71.105 12 72.088 12.983 72.088 14.196 L 72.088 19.418 L 78.155 19.418 C 79.367 19.418 80.351 20.401 80.351 21.614 C 80.351 22.827 79.367 23.81 78.155 23.81 L 72.088 23.81 L 72.088 29.541 C 72.088 32.886 74.81 35.608 78.155 35.608 Z M 93.949 12 C 99.065 12 103.227 16.162 103.227 21.278 C 103.227 26.394 99.065 30.557 93.949 30.557 L 86.702 30.557 L 86.702 37.804 C 86.702 39.017 85.719 40 84.506 40 C 83.293 40 82.31 39.017 82.31 37.804 L 82.31 28.361 C 82.31 27.148 83.293 26.165 84.506 26.165 L 93.949 26.165 C 96.643 26.165 98.835 23.973 98.835 21.278 C 98.835 18.584 96.643 16.392 93.949 16.392 L 89.808 16.392 L 94.321 20.905 C 95.179 21.763 95.179 23.153 94.321 24.011 C 93.464 24.869 92.073 24.869 91.216 24.011 L 82.953 15.748 C 82.325 15.12 82.137 14.176 82.477 13.355 C 82.817 12.534 83.618 12 84.506 12 L 93.949 12 Z M 121.556 19.412 C 122.769 19.412 123.752 20.395 123.752 21.608 L 123.752 37.804 C 123.752 39.017 122.769 40 121.556 40 C 120.449 40 119.536 39.18 119.384 38.115 C 117.707 39.301 115.663 40 113.458 40 C 107.782 40 103.164 35.382 103.164 29.706 C 103.164 24.03 107.782 19.412 113.458 19.412 C 115.663 19.412 117.707 20.111 119.384 21.297 C 119.536 20.232 120.449 19.412 121.556 19.412 Z M 113.458 35.608 C 116.712 35.608 119.36 32.96 119.36 29.706 C 119.36 26.452 116.712 23.804 113.458 23.804 C 110.204 23.804 107.556 26.452 107.556 29.706 C 107.556 32.96 110.204 35.608 113.458 35.608 Z M 139.098 29.706 L 145.643 36.251 C 146.501 37.108 146.501 38.499 145.643 39.356 C 145.214 39.785 144.652 40 144.09 40 C 143.528 40 142.966 39.785 142.537 39.356 L 135.992 32.811 L 129.447 39.356 C 129.018 39.785 128.456 40 127.894 40 C 127.332 40 126.77 39.785 126.341 39.356 C 125.484 38.499 125.484 37.108 126.341 36.251 L 132.886 29.706 L 126.341 23.16 C 125.484 22.303 125.484 20.912 126.341 20.055 C 127.199 19.197 128.589 19.197 129.447 20.055 L 135.992 26.6 L 142.537 20.055 C 143.395 19.198 144.785 19.198 145.643 20.055 C 146.501 20.913 146.501 22.303 145.643 23.161 L 139.098 29.706 Z" style="fill: rgb(155, 15, 153);"/></g></g></svg>