<?xml version="1.0" encoding="utf-8"?>
<svg viewBox="2.0618 3.2587 53.9922 53.2933" width="54px" height="53.3px" preserveAspectRatio="none" xmlns="http://www.w3.org/2000/svg"><g id="object-0" transform="matrix(1, 0, 0, 1, 7.105427357601002e-15, 0)"><g id="SvgjsG1869" featurekey="monogramFeature-0" transform="matrix(1.538423, 0, 0, 1.538423, -14.380989, -28.550349)" fill="#000000" style=""><path d="M 45.363 34.281 C 45.682 35.631 45.795 36.994 45.783 38.33 C 45.75 41.011 45.116 43.603 43.98 45.968 C 43.417 47.153 42.689 48.265 41.869 49.307 C 41.037 50.344 40.055 51.275 38.988 52.096 C 37.899 52.905 36.727 53.549 35.522 54.064 C 34.308 54.549 33.061 54.898 31.802 55.107 C 30.541 55.294 29.273 55.366 28.012 55.285 C 26.752 55.188 25.501 54.989 24.285 54.615 C 21.861 53.889 19.537 52.535 17.765 50.674 C 16.888 49.75 16.116 48.747 15.518 47.665 C 14.909 46.591 14.415 45.464 14.082 44.294 C 13.736 43.131 13.516 41.932 13.457 40.719 C 13.404 40.117 13.438 39.504 13.451 38.899 C 13.484 38.586 13.511 38.272 13.546 37.959 C 13.151 37.857 12.779 37.729 12.443 37.567 C 11.816 37.275 11.291 36.846 10.995 36.376 C 10.704 35.916 10.607 35.374 10.76 34.82 C 10.873 34.406 11.013 34.032 11.146 33.64 L 11.356 33.063 L 11.594 32.533 L 12.087 31.493 L 12.635 30.544 L 12.915 30.075 L 13.214 29.64 L 13.822 28.78 C 14.251 28.249 14.673 27.703 15.135 27.215 C 15.596 26.725 16.058 26.238 16.561 25.799 C 17.044 25.341 17.57 24.923 18.099 24.512 C 18.622 24.097 19.204 23.729 19.766 23.354 C 20.38 23.006 20.94 22.64 21.612 22.341 C 22.869 21.701 24.354 21.201 25.98 20.888 C 26.408 20.824 26.837 20.768 27.266 20.721 C 27.687 20.68 28.044 20.69 28.434 20.68 C 28.819 20.668 29.197 20.687 29.574 20.719 C 29.95 20.754 30.333 20.765 30.699 20.832 C 33.669 21.254 36.347 22.432 38.581 24.075 C 39.709 24.886 40.713 25.845 41.617 26.889 C 42.526 27.927 43.297 29.094 43.938 30.338 C 44.589 31.578 45.062 32.939 45.363 34.282 L 45.363 34.281 Z M 35.034 42.028 C 35.421 40.907 35.569 39.685 35.443 38.558 C 35.378 37.998 35.274 37.454 35.082 36.968 C 34.902 36.473 34.693 36.039 34.396 35.628 C 33.835 34.793 33.012 34.052 32.108 33.554 C 31.207 33.045 30.232 32.802 29.416 32.809 C 29.313 32.793 29.216 32.829 29.118 32.828 C 29.019 32.83 28.922 32.836 28.831 32.862 C 28.748 32.884 28.626 32.884 28.577 32.91 C 28.536 32.939 28.495 32.958 28.454 32.968 C 28.232 33.089 27.895 33.204 27.491 33.501 C 26.694 33.998 25.808 34.886 25.158 35.778 C 24.483 36.665 24.126 37.685 24.111 38.107 C 24.147 38.16 23.947 38.151 23.566 38.147 C 23.193 38.136 22.681 38.098 22.025 38.112 C 21.425 38.117 20.726 38.154 19.976 38.194 C 19.956 38.477 19.966 38.767 19.958 39.05 C 19.999 39.396 20.002 39.737 20.077 40.08 C 20.18 40.763 20.382 41.436 20.65 42.071 C 21.173 43.347 22 44.471 22.97 45.271 C 23.928 46.072 25.067 46.569 26.321 46.807 C 26.945 46.929 27.594 46.949 28.233 46.934 C 28.878 46.904 29.511 46.788 30.121 46.634 C 30.726 46.457 31.298 46.22 31.827 45.942 C 32.34 45.638 32.811 45.303 33.213 44.926 C 33.604 44.527 33.973 44.102 34.278 43.611 C 34.572 43.112 34.847 42.594 35.034 42.028 Z" style="fill: #219ebc;"/></g></g></svg>